<!-- <svg xmlns="http://www.w3.org/2000/svg" viewBox="0 0 841.9 595.3">
    <g fill="#61DAFB">
        <path d="M666.3 296.5c0-32.5-40.7-63.3-103.1-82.4 14.4-63.6 8-114.2-20.2-130.4-6.5-3.8-14.1-5.6-22.4-5.6v22.3c4.6 0 8.3.9 11.4 2.6 13.6 7.8 19.5 37.5 14.9 75.7-1.1 9.4-2.9 19.3-5.1 29.4-19.6-4.8-41-8.5-63.5-10.9-13.5-18.5-27.5-35.3-41.6-50 32.6-30.3 63.2-46.9 84-46.9V78c-27.5 0-63.5 19.6-99.9 53.6-36.4-33.8-72.4-53.2-99.9-53.2v22.3c20.7 0 51.4 16.5 84 46.6-14 14.7-28 31.4-41.3 49.9-22.6 2.4-44 6.1-63.6 11-2.3-10-4-19.7-5.2-29-4.7-38.2 1.1-67.9 14.6-75.8 3-1.8 6.9-2.6 11.5-2.6V78.5c-8.4 0-16 1.8-22.6 5.6-28.1 16.2-34.4 66.7-19.9 130.1-62.2 19.2-102.7 49.9-102.7 82.3 0 32.5 40.7 63.3 103.1 82.4-14.4 63.6-8 114.2 20.2 130.4 6.5 3.8 14.1 5.6 22.5 5.6 27.5 0 63.5-19.6 99.9-53.6 36.4 33.8 72.4 53.2 99.9 53.2 8.4 0 16-1.8 22.6-5.6 28.1-16.2 34.4-66.7 19.9-130.1 62-19.1 102.5-49.9 102.5-82.3zm-130.2-66.7c-3.7 12.9-8.3 26.2-13.5 39.5-4.1-8-8.4-16-13.1-24-4.6-8-9.5-15.8-14.4-23.4 14.2 2.1 27.9 4.7 41 7.9zm-45.8 106.5c-7.8 13.5-15.8 26.3-24.1 38.2-14.9 1.3-30 2-45.2 2-15.1 0-30.2-.7-45-1.9-8.3-11.9-16.4-24.6-24.2-38-7.6-13.1-14.5-26.4-20.8-39.8 6.2-13.4 13.2-26.8 20.7-39.9 7.8-13.5 15.8-26.3 24.1-38.2 14.9-1.3 30-2 45.2-2 15.1 0 30.2.7 45 1.9 8.3 11.9 16.4 24.6 24.2 38 7.6 13.1 14.5 26.4 20.8 39.8-6.3 13.4-13.2 26.8-20.7 39.9zm32.3-13c5.4 13.4 10 26.8 13.8 39.8-13.1 3.2-26.9 5.9-41.2 8 4.9-7.7 9.8-15.6 14.4-23.7 4.6-8 8.9-16.1 13-24.1zM421.2 430c-9.3-9.6-18.6-20.3-27.8-32 9 .4 18.2.7 27.5.7 9.4 0 18.7-.2 27.8-.7-9 11.7-18.3 22.4-27.5 32zm-74.4-58.9c-14.2-2.1-27.9-4.7-41-7.9 3.7-12.9 8.3-26.2 13.5-39.5 4.1 8 8.4 16 13.1 24 4.7 8 9.5 15.8 14.4 23.4zM420.7 163c9.3 9.6 18.6 20.3 27.8 32-9-.4-18.2-.7-27.5-.7-9.4 0-18.7.2-27.8.7 9-11.7 18.3-22.4 27.5-32zm-74 58.9c-4.9 7.7-9.8 15.6-14.4 23.7-4.6 8-8.9 16-13 24-5.4-13.4-10-26.8-13.8-39.8 13.1-3.1 26.9-5.8 41.2-7.9zm-90.5 125.2c-35.4-15.1-58.3-34.9-58.3-50.6 0-15.7 22.9-35.6 58.3-50.6 8.6-3.7 18-7 27.7-10.1 5.7 19.6 13.2 40 22.5 60.9-9.2 20.8-16.6 41.1-22.2 60.6-9.9-3.1-19.3-6.5-28-10.2zM310 490c-13.6-7.8-19.5-37.5-14.9-75.7 1.1-9.4 2.9-19.3 5.1-29.4 19.6 4.8 41 8.5 63.5 10.9 13.5 18.5 27.5 35.3 41.6 50-32.6 30.3-63.2 46.9-84 46.9-4.5-.1-8.3-1-11.3-2.7zm237.2-76.2c4.7 38.2-1.1 67.9-14.6 75.8-3 1.8-6.9 2.6-11.5 2.6-20.7 0-51.4-16.5-84-46.6 14-14.7 28-31.4 41.3-49.9 22.6-2.4 44-6.1 63.6-11 2.3 10.1 4.1 19.8 5.2 29.1zm38.5-66.7c-8.6 3.7-18 7-27.7 10.1-5.7-19.6-13.2-40-22.5-60.9 9.2-20.8 16.6-41.1 22.2-60.6 9.9 3.1 19.3 6.5 28.1 10.2 35.4 15.1 58.3 34.9 58.3 50.6-.1 15.7-23 35.6-58.4 50.6zM320.8 78.4z"/>
        <circle cx="420.9" cy="296.5" r="45.7"/>
        <path d="M520.5 78.1z"/>
    </g>
</svg> -->
<svg xmlns="http://www.w3.org/2000/svg" viewBox="0 0 576 339.2">
  <defs>
    <style>.a{fill:#fff;}.b{fill:#c8202f;}.c{fill:#1e4388;}</style>
  </defs>
  <title>nba-logoman-word-white</title>
  <path class="a" d="M227.6,330.9h-38V8.2h58.7l39.3,266.1C281.7,211,274,108.9,274,55.2V8.2h38V330.8H258.2L222.1,72.4c3.2,57.8,5.4,127,5.4,165.8v92.7ZM377.2,190.8v99.4h7.2c13.6,0,17.6-7.7,17.6-23V212.5c0-15.8-5-21.7-19.4-21.7h-5.4Zm0-141.9V155.5h5.4c15.4,0,19.4-5.9,19.4-23.5V70.6c0-14.9-4.5-21.7-17.6-21.7h-7.2Zm-43.4,282V8.2h53.8c35.7,0,57.8,19.4,57.8,64.6v47.5c0,29.4-9,44.3-21.7,52,12.6,8.1,21.7,22.6,21.7,47.4v47c0,44.3-23.5,64.2-57.8,64.2H333.8Zm167.6-97.2h23l-3.6-59.2c-1.4-23.5-5-98-7.7-138.3h-1.8L505,174.5l-3.6,59.2Zm25.3,36.6H499.6L496,330.8H452.2L483.8,8.2h61.5L576,330.9H530.4Z"/><path class="a" d="M114.5,0H35.1A35.1,35.1,0,0,0,0,35.1V304a35.2,35.2,0,0,0,35.1,35.2h79.4A35.3,35.3,0,0,0,149.7,304V35.1A35.3,35.3,0,0,0,114.5,0"/><path class="b" d="M94.8,62.1v1.1c2.4,1.4,3.6,2.6,6.1,4.1,6.5,4.1,14.5,11.3,13.4,36.3,1.8,5.4,2.6,16.1,4.3,19.6,3.4,6.7,5.6,11,6.6,17.4,0,0,1,9.8,2.2,10.5,6.7,1.5,4.8,2.2,5.7,3.3s4.9,1.3,4.9,4.9a28.2,28.2,0,0,1,3.1,5.6V35.1A26.8,26.8,0,0,0,114.4,8.3H88.7c4.1,1.5,6.4,3.2,7.8,5.9,3.3.3,7.3,7.7,1.1,18.7,2.7,1.8.6,4.5-1.4,7.7-.6,1-1.2,2.8-3,2.7-2.3,4.9-5.1,9.7-7.3,10-.6.8-1.1,2.9-.1,3.9a31.6,31.6,0,0,1,9,4.9m46.5,120.5a23.9,23.9,0,1,1-27.9-32.1c-2.8-6.9-8.6-18.1-10.3-21.8s-5.6-26.4-6.4-30.9c-.2-1-10.3,5.9-10.3,6.3S78.8,123,78.5,124s-.2,3.1-.2,3.1,3.4.4,5.4,6.4,7.9,27.9,7.9,27.9-1.6,1.7-1.7,1.6c7.6,25.3,4.9,36.2,8.3,43.6,4.3,10.5,5.4,9.1,9.1,17.9,2.6,6.4,5.5,31.6,6.5,32.7,4.1,5.2,6.3,9.2,6.3,12.1s-3.5,11.6-2.2,16.7c.8,3,1.2,9.6,2.5,10.9s1.3,2.5.6,3.6a2.5,2.5,0,0,0-.4,1.4c2.3,7.9,9.5,21.5-2.3,28.6h.3A26.7,26.7,0,0,0,141.2,304V182.6Z"/><path class="c" d="M111.1,298.8c-4.3-3.8-1.4-5.5-1.6-7-2.8-11.7-12.2-18.9-7.3-22.7-1.2-3.9-3.6-8.7-3.5-8.7-14.5-8.3-26.9-21.9-29-23.9s-6.9-5.6-7.7-7.8c-3.5-3.2-20.6-27.5-24.6-36.5l-7-1c-3.2-12.9-13.7-23.8-14-36.7-.1-4.9,2.2-15.4,3.1-17.5s4.9-5.6,4.9-5.6v-3.5c-15.2.4-10.8-1.1-13.4-7-1.8-4.1-.5-5,.1-7.8,2-8.4,8.8-21.3,11.6-27.1.9-3,3.8-10.1,3.8-10.1,11.3-23,15.5-21.3,29-22.6l.7-1c13.5-.6,11.3-1.6,13.2-14.6-2,.8-2.5-4.1-2.5-4.1-1.1-7.4,2-6,3.5-6.1C70.7,15.4,72,11.6,80.7,8.2H35.1A26.8,26.8,0,0,0,8.3,35V303.9a26.9,26.9,0,0,0,26.8,26.9h79.4c-9.1-4.9-3.7-14.2-3.4-32Z"/>
</svg>
